<?xml version="1.0" encoding="UTF-8" standalone="no" ?>
<!DOCTYPE svg PUBLIC "-//W3C//DTD SVG 1.1//EN" "http://www.w3.org/Graphics/SVG/1.1/DTD/svg11.dtd">
<svg xmlns="http://www.w3.org/2000/svg" xmlns:xlink="http://www.w3.org/1999/xlink" version="1.1" width="500" height="500" viewBox="0 0 500 500" xml:space="preserve">
<desc>Created with Fabric.js 4.6.0</desc>
<defs>
</defs>
<g transform="matrix(0.7 0 0 0.7 250 250)" id="9OHWCYM289Kud8VcsVJVy"  >
<path style="stroke: none; stroke-width: 1; stroke-dasharray: none; stroke-linecap: butt; stroke-dashoffset: 0; stroke-linejoin: miter; stroke-miterlimit: 4; fill: rgb(255,255,255); fill-rule: nonzero; opacity: 1;" vector-effect="non-scaling-stroke"  transform=" translate(-245, -245)" d="M 422.234 0 L 208.47 0 C 205.7 0 203.053 1.1 201.098 3.055 L 60.394 143.759 C 58.439 145.714 57.339999999999996 148.36599999999999 57.339999999999996 151.13 L 57.339999999999996 479.575 C 57.339999999999996 485.33299999999997 62.001999999999995 490.001 67.765 490.001 L 422.233 490.001 C 427.995 490.001 432.658 485.33299999999997 432.658 479.575 L 432.658 10.426 C 432.659 4.668 427.996 0 422.234 0 z M 198.044 35.594 L 198.044 140.704 L 92.934 140.704 L 149.235 84.403 L 198.044 35.594 z M 411.809 469.149 L 78.192 469.149 L 78.192 161.555 L 208.47 161.555 C 214.232 161.555 218.896 156.887 218.896 151.12900000000002 L 218.896 20.851 L 411.80899999999997 20.851 L 411.80899999999997 469.149 z" stroke-linecap="round" />
</g>
<g transform="matrix(0.33 0 0 0.33 259.7 291.88)" id="fqTj_WxQhsAsjhGSTS-yk"  >
<path style="stroke: none; stroke-width: 1; stroke-dasharray: none; stroke-linecap: butt; stroke-dashoffset: 0; stroke-linejoin: miter; stroke-miterlimit: 4; fill: rgb(255,255,255); fill-rule: nonzero; opacity: 1;" vector-effect="non-scaling-stroke"  transform=" translate(-256, -256)" d="M 503.523 50.424 L 8.477 50.424 C 3.795 50.424 0 54.22 0 58.901 L 0 453.099 C 0 457.78 3.795 461.57599999999996 8.477 461.57599999999996 L 503.524 461.57599999999996 C 508.206 461.57599999999996 512.001 457.78099999999995 512.001 453.099 L 512.001 58.901 C 512 54.22 508.205 50.424 503.523 50.424 z M 483.058 67.378 L 462.113 88.32300000000001 L 49.887 88.32300000000001 L 28.942 67.378 L 483.058 67.378 z M 280.699 349.653 C 283.228 351.649 285.813 353.562 288.44 355.408 C 182.249 359.204 138.926 395.40000000000003 127.90899999999999 406.725 L 54.852 406.725 L 54.852 300.434 C 75.16799999999999 295.514 96.127 293.01500000000004 117.257 293.01500000000004 C 177.222 293.015 233.739 312.6 280.699 349.653 z M 101.029 224.872 C 101.029 215.03500000000003 109.032 207.031 118.87 207.031 C 128.70800000000003 207.031 136.711 215.034 136.711 224.872 C 136.711 234.71000000000004 128.70800000000003 242.71300000000002 118.87 242.71300000000002 C 109.03199999999998 242.71300000000002 101.029 234.709 101.029 224.872 z M 306.79 372.031 C 310.46700000000004 372.031 314.237 372.077 318.062 372.156 C 322.075 373.934 326.151 375.557 330.28000000000003 377.023 C 328.71000000000004 377.466 327.119 377.92600000000004 325.504 378.406 C 298.194 386.533 278.29200000000003 396.051 266.231 406.721 L 154.791 406.721 C 176.483 392.424 222.24 372.031 306.79 372.031 z M 330.164 394.709 C 347.654 389.493 363.086 386.501 367.277 385.728 C 373.776 386.511 380.32 386.927 386.878 386.945 L 387.662 386.94599999999997 C 411.215 386.94599999999997 434.53499999999997 384.029 457.147 378.279 L 457.147 406.722 L 297.865 406.722 C 306.817 402.485 317.643 398.444 330.164 394.709 z M 387.663 369.995 L 386.92 369.994 C 352.57500000000005 369.899 318.581 357.949 291.20000000000005 336.34400000000005 C 243.86200000000005 298.994 187.40100000000004 278.33200000000005 127.34600000000003 276.25000000000006 L 127.34600000000003 258.6170000000001 C 142.44700000000003 254.8220000000001 153.66300000000004 241.13500000000008 153.66300000000004 224.87200000000007 C 153.66300000000004 205.68600000000006 138.05500000000004 190.0780000000001 118.86900000000004 190.0780000000001 C 99.68300000000005 190.0780000000001 84.07500000000005 205.6860000000001 84.07500000000005 224.87200000000007 C 84.07500000000005 241.13500000000008 95.29100000000004 254.82200000000006 110.39200000000005 258.6170000000001 L 110.39200000000005 276.15400000000005 C 91.62100000000005 276.60600000000005 73.01000000000005 278.90700000000004 54.851000000000056 283.02200000000005 L 54.851000000000056 105.276 L 457.1460000000001 105.276 L 457.1460000000001 360.75 L 457.14700000000005 360.75 C 434.602 366.88 411.26 369.995 387.663 369.995 z M 16.953 79.366 L 37.897999999999996 100.311 L 37.897999999999996 411.69 L 16.952999999999996 432.635 L 16.952999999999996 79.366 z M 28.94 444.622 L 49.886 423.677 L 462.112 423.677 L 483.057 444.622 L 28.94 444.622 z M 495.047 432.634 L 474.10200000000003 411.689 L 474.10200000000003 100.311 L 495.047 79.36600000000001 L 495.047 432.634 z" stroke-linecap="round" />
</g>
<g transform="matrix(0.33 0 0 0.33 299.71 265.18)" id="fMlT0yP00CBiAzzQs9RT7"  >
<path style="stroke: none; stroke-width: 1; stroke-dasharray: none; stroke-linecap: butt; stroke-dashoffset: 0; stroke-linejoin: miter; stroke-miterlimit: 4; fill: rgb(255,255,255); fill-rule: nonzero; opacity: 1;" vector-effect="non-scaling-stroke"  transform=" translate(-378.88, -173.99)" d="M 378.885 128.891 C 354.019 128.891 333.789 149.12099999999998 333.789 173.987 C 333.789 198.853 354.019 219.083 378.885 219.083 C 403.751 219.083 423.981 198.853 423.981 173.987 C 423.981 149.12099999999998 403.751 128.891 378.885 128.891 z M 378.885 202.13 C 363.36699999999996 202.13 350.74199999999996 189.505 350.74199999999996 173.987 C 350.74199999999996 158.469 363.36699999999996 145.844 378.885 145.844 C 394.403 145.844 407.028 158.469 407.028 173.987 C 407.028 189.505 394.403 202.13 378.885 202.13 z" stroke-linecap="round" />
</g>
<g transform="matrix(0.33 0 0 0.33 303.88 298.97)" id="q8JleD56UuKqJrEr-4Vf-"  >
<path style="stroke: none; stroke-width: 1; stroke-dasharray: none; stroke-linecap: butt; stroke-dashoffset: 0; stroke-linejoin: miter; stroke-miterlimit: 4; fill: rgb(255,255,255); fill-rule: nonzero; opacity: 1;" vector-effect="non-scaling-stroke"  transform=" translate(-391.7, -277.76)" d="M 410.013 260.128 C 402.93899999999996 260.128 396.49699999999996 262.885 391.703 267.38 C 386.90999999999997 262.885 380.467 260.128 373.393 260.128 C 368.71099999999996 260.128 364.916 263.923 364.916 268.60499999999996 C 364.916 273.28599999999994 368.71 277.08199999999994 373.393 277.08199999999994 C 378.815 277.08199999999994 383.226 281.49299999999994 383.226 286.91499999999996 C 383.226 291.59599999999995 387.02 295.39199999999994 391.703 295.39199999999994 C 396.385 295.39199999999994 400.17999999999995 291.5969999999999 400.17999999999995 286.91499999999996 C 400.17999999999995 281.49299999999994 404.59099999999995 277.08199999999994 410.013 277.08199999999994 C 414.695 277.08199999999994 418.48999999999995 273.2869999999999 418.48999999999995 268.60499999999996 C 418.49 263.923 414.696 260.128 410.013 260.128 z" stroke-linecap="round" />
</g>
<g transform="matrix(1.35 0 0 0.09 302.49 122.68)" id="9rCIecpdHTN20zg6TTdH4"  >
<path style="stroke: rgb(72,153,105); stroke-width: 0; stroke-dasharray: none; stroke-linecap: butt; stroke-dashoffset: 0; stroke-linejoin: miter; stroke-miterlimit: 4; fill: rgb(255,255,255); fill-rule: nonzero; opacity: 1;" vector-effect="non-scaling-stroke"  transform=" translate(0, 0)" d="M -39 -39 L 39 -39 L 39 39 L -39 39 z" stroke-linecap="round" />
</g>
<g transform="matrix(0.86 0 0 0.09 299.71 142.34)" id="c3VI3-SA9JDYnUnNAAg7H"  >
<path style="stroke: rgb(72,153,105); stroke-width: 0; stroke-dasharray: none; stroke-linecap: butt; stroke-dashoffset: 0; stroke-linejoin: miter; stroke-miterlimit: 4; fill: rgb(255,255,255); fill-rule: nonzero; opacity: 1;" vector-effect="non-scaling-stroke"  transform=" translate(0, 0)" d="M -39 -39 L 39 -39 L 39 39 L -39 39 z" stroke-linecap="round" />
</g>
<g transform="matrix(0.63 0 0 0.09 302.49 162.56)" id="LjaEdRVxiMyPb3GrycxEb"  >
<path style="stroke: rgb(72,153,105); stroke-width: 0; stroke-dasharray: none; stroke-linecap: butt; stroke-dashoffset: 0; stroke-linejoin: miter; stroke-miterlimit: 4; fill: rgb(255,255,255); fill-rule: nonzero; opacity: 1;" vector-effect="non-scaling-stroke"  transform=" translate(0, 0)" d="M -39 -39 L 39 -39 L 39 39 L -39 39 z" stroke-linecap="round" />
</g>
<g transform="matrix(1.35 0 0 0.09 303.88 181.65)" id="CZ-H2CYhYCZTUxHYPlXrC"  >
<path style="stroke: rgb(72,153,105); stroke-width: 0; stroke-dasharray: none; stroke-linecap: butt; stroke-dashoffset: 0; stroke-linejoin: miter; stroke-miterlimit: 4; fill: rgb(255,255,255); fill-rule: nonzero; opacity: 1;" vector-effect="non-scaling-stroke"  transform=" translate(0, 0)" d="M -39 -39 L 39 -39 L 39 39 L -39 39 z" stroke-linecap="round" />
</g>
</svg>