<?xml version="1.0" encoding="UTF-8" standalone="no" ?>
<!DOCTYPE svg PUBLIC "-//W3C//DTD SVG 1.1//EN" "http://www.w3.org/Graphics/SVG/1.1/DTD/svg11.dtd">
<svg xmlns="http://www.w3.org/2000/svg" xmlns:xlink="http://www.w3.org/1999/xlink" version="1.1" width="500" height="500" viewBox="0 0 500 500" xml:space="preserve">
<desc>Created with Fabric.js 4.6.0</desc>
<defs>
</defs>
<g transform="matrix(1 0 0 1 52.06 82.43)" id="KuQF5QAD1i7zeh_jeFypJ"  >
<path style="stroke: rgb(0,0,0); stroke-width: 1; stroke-dasharray: none; stroke-linecap: butt; stroke-dashoffset: 0; stroke-linejoin: miter; stroke-miterlimit: 4; fill: rgb(255,255,255); fill-rule: nonzero; opacity: 1;" vector-effect="non-scaling-stroke"  transform=" translate(0, 0)" d="M 0 0" stroke-linecap="round" />
</g>
<g transform="matrix(1 0 0 1 250 250)" id="tHMXC6az6MemxIg2e5uya"  >
<path style="stroke: none; stroke-width: 1; stroke-dasharray: none; stroke-linecap: butt; stroke-dashoffset: 0; stroke-linejoin: miter; stroke-miterlimit: 4; fill: rgb(255,255,255); fill-rule: evenodd; opacity: 1;" vector-effect="non-scaling-stroke"  transform=" translate(-224, -224)" d="M 224 0 C 100.28821603790226 0 0 100.28821603790226 0 224 C 0 347.71178396209774 100.28821603790226 448 224 448 C 347.71178396209774 448 448 347.71178396209774 448 224 C 448 100.28821603790226 347.71178396209774 0 224 0 z M 152 128 C 162.60866097967036 127.99999999999979 172.78281870800166 132.21427386993102 180.28427407588995 139.71572923781932 C 187.78572944377828 147.21718460570764 192.00000212173262 157.39134114206206 192 168 C 192.00000212173262 178.60865885793794 187.78572944377825 188.78281539429238 180.28427407588995 196.28427076218068 C 172.78281870800163 203.78572613006898 162.60866097967033 208.00000000000023 151.99999999999994 208 C 141.39133902032964 208.0000000000002 131.21718129199834 203.78572613006898 123.71572592411003 196.28427076218065 C 116.21427055622172 188.78281539429236 111.99999787826738 178.60865885793794 112 168 C 111.99999787826738 157.39134114206206 116.21427055622173 147.21718460570764 123.71572592411003 139.71572923781935 C 131.21718129199834 132.21427386993105 141.3913390203296 127.9999999999998 151.99999999999997 128 z M 296 128 C 306.60866097967033 127.99999999999979 316.7828187080016 132.21427386993102 324.28427407589 139.71572923781932 C 331.7857294437783 147.21718460570764 336.0000021217326 157.39134114206206 336 168 C 336.0000021217326 178.60865885793794 331.7857294437783 188.78281539429238 324.2842740758899 196.28427076218068 C 316.7828187080016 203.78572613006898 306.60866097967033 208.00000000000023 295.99999999999994 208 C 285.39133902032967 208.0000000000002 275.2171812919984 203.78572613006898 267.71572592411 196.28427076218065 C 260.2142705562217 188.78281539429236 255.99999787826738 178.60865885793794 256 168 C 255.99999787826738 157.39134114206206 260.2142705562217 147.21718460570764 267.71572592411 139.71572923781935 C 275.2171812919983 132.21427386993105 285.3913390203296 127.9999999999998 296 128 z M 121.40625 256 C 130.1107602281011 255.93983408272697 138.24520034780565 260.7205564700817 142.99414 268.6875 C 142.99414 268.6875 168.91711 312.16602 224.02148 312.16602 C 279.12585 312.16602 305.05078 268.6875 305.05078 268.6875 C 310.1047917953503 260.3094045106209 318.88631410967287 255.53680355843906 328.0538530370917 256.1857395591166 C 337.22139196451053 256.83467555979416 345.36528176463395 262.8053635159502 349.3866567552723 271.82587189848726 C 353.4080317459107 280.8463802810243 352.68853681579026 291.52965180788976 347.50195 299.81055 C 347.50195 299.81055 304.77887 368 224.02148 368 C 143.26408 368 100.54492 299.81055 100.54492 299.81055 C 95.14935178508968 291.29789756024826 94.50998807394329 280.22356378645634 98.88378346506882 271.0382250917195 C 103.25757885619436 261.8528863969826 111.92637126737368 256.0647436395933 121.40625 256 z" stroke-linecap="round" />
</g>
</svg>