<?xml version="1.0" encoding="UTF-8" standalone="no" ?>
<!DOCTYPE svg PUBLIC "-//W3C//DTD SVG 1.1//EN" "http://www.w3.org/Graphics/SVG/1.1/DTD/svg11.dtd">
<svg xmlns="http://www.w3.org/2000/svg" xmlns:xlink="http://www.w3.org/1999/xlink" version="1.1" width="500" height="500" viewBox="0 0 500 500" xml:space="preserve">
<desc>Created with Fabric.js 4.6.0</desc>
<defs>
</defs>
<g transform="matrix(1 0 0 1 90.68 249.5)" id="VjJM7XzirZJOsqK75wPEN"  >
<path style="stroke: rgb(0,0,0); stroke-width: 1; stroke-dasharray: none; stroke-linecap: butt; stroke-dashoffset: 0; stroke-linejoin: miter; stroke-miterlimit: 4; fill: rgb(255,255,255); fill-rule: nonzero; opacity: 1;" vector-effect="non-scaling-stroke"  transform=" translate(0, 0)" d="M 0 0" stroke-linecap="round" />
</g>
<g transform="matrix(1 0 0 1 52.06 82.43)" id="KuQF5QAD1i7zeh_jeFypJ"  >
<path style="stroke: rgb(0,0,0); stroke-width: 1; stroke-dasharray: none; stroke-linecap: butt; stroke-dashoffset: 0; stroke-linejoin: miter; stroke-miterlimit: 4; fill: rgb(255,255,255); fill-rule: nonzero; opacity: 1;" vector-effect="non-scaling-stroke"  transform=" translate(0, 0)" d="M 0 0" stroke-linecap="round" />
</g>
<g transform="matrix(1 0 0 1 250.5 250)" id="qtfq18bzspqoGRpi-wXSd"  >
<path style="stroke: none; stroke-width: 1; stroke-dasharray: none; stroke-linecap: butt; stroke-dashoffset: 0; stroke-linejoin: miter; stroke-miterlimit: 4; fill: rgb(255,255,255); fill-rule: nonzero; opacity: 1;" vector-effect="non-scaling-stroke"  transform=" translate(0, 0)" d="M 158.8205 -125.6615 L 150.5415 -133.9415 L 117.35350000000001 -100.75349999999999 L 117.35350000000001 -138.08749999999998 L -158.82049999999998 -138.08749999999998 L -158.82049999999998 138.08750000000003 L 117.3535 138.08750000000003 L 117.3535 -84.19449999999998 z M 105.6435 126.3705 L -147.1105 126.3705 L -147.1105 -126.38249999999998 L 105.64349999999999 -126.38249999999998 L 105.64349999999999 -89.04949999999998 L -22.9315 39.52650000000001 L -83.43950000000001 -20.98749999999999 L -91.71950000000001 -12.70849999999999 L -22.926500000000004 56.08550000000001 L 105.64349999999999 -72.48449999999998 z" stroke-linecap="round" />
</g>
</svg>